ply
format ascii 1.0
comment Created by Blender 2.77 (sub 0) - www.blender.org, source file: 'coke.blend'
element vertex 427
property float x
property float y
property float z
property float nx
property float ny
property float nz
property float s
property float t
element face 320
property list uchar uint vertex_indices
end_header
-0.000000 -0.027075 -0.059903 0.000000 -0.558031 -0.829798 0.611853 0.867400
-0.005282 -0.026555 -0.059903 -0.108860 -0.547288 -0.829798 0.538038 0.882164
-0.004754 -0.023899 -0.060682 -0.028871 -0.145177 -0.988952 0.534139 0.843438
-0.000000 -0.024367 -0.060682 0.000000 -0.148015 -0.988952 0.600475 0.830179
-0.019145 -0.019145 0.059903 0.066500 0.066500 0.995544 0.347656 0.631094
-0.015042 -0.022512 0.059903 0.052248 0.078188 0.995544 0.378906 0.631094
-0.013538 -0.020261 0.047144 0.351115 0.525498 0.774926 0.378906 0.442594
-0.017230 -0.017230 0.047144 0.446913 0.446913 0.774926 0.347656 0.442594
0.000000 0.033844 0.047923 0.000000 0.968108 0.250465 0.718766 0.895570
0.000000 0.027075 0.059903 0.000000 -0.094028 0.995544 0.718766 1.002992
0.005282 0.026555 0.059903 -0.018342 -0.092227 0.995544 0.687696 1.002992
0.006603 0.033193 0.047923 0.188849 0.949492 0.250465 0.687696 0.895570
0.005282 -0.026555 -0.059903 0.108860 -0.547288 -0.829798 0.681367 0.838522
0.004754 -0.023899 -0.060682 0.028871 -0.145177 -0.988952 0.662947 0.804234
-0.010361 -0.025014 0.059903 0.035981 0.086886 0.995544 0.410156 0.631094
-0.009325 -0.022513 0.047144 0.241859 0.583911 0.774926 0.410156 0.442594
0.010361 0.025014 0.059903 -0.035981 -0.086886 0.995544 0.656626 1.002992
0.012951 0.031267 0.047923 0.370464 0.894406 0.250465 0.656626 0.895570
0.000000 0.027075 -0.059903 0.000000 0.558031 -0.829798 0.388109 0.132611
0.005282 0.026555 -0.059903 0.108860 0.547288 -0.829798 0.461939 0.117841
0.004754 0.023899 -0.060682 0.028871 0.145177 -0.988952 0.465841 0.156575
0.000000 0.024367 -0.060682 0.000000 0.148015 -0.988952 0.399492 0.169840
0.010361 -0.025014 -0.059903 0.213538 -0.515549 -0.829798 0.743916 0.796642
0.009325 -0.022513 -0.060682 0.056642 -0.136753 -0.988952 0.719162 0.766607
0.015042 0.022512 0.059903 -0.052248 -0.078188 0.995544 0.625556 1.002992
0.018802 0.028140 0.047923 0.537858 0.804956 0.250465 0.625556 0.895570
-0.005282 -0.026555 0.059903 0.018342 0.092227 0.995544 0.441406 0.631094
-0.004754 -0.023899 0.047144 0.123295 0.619892 0.774926 0.441406 0.442594
0.015042 -0.022512 -0.059903 0.310007 -0.463973 -0.829798 0.797096 0.743362
0.013538 -0.020261 -0.060682 0.082247 -0.123081 -0.988952 0.766957 0.718732
0.019145 0.019145 0.059903 -0.066500 -0.066500 0.995544 0.594487 1.002992
0.023931 0.023931 0.047923 0.684561 0.684561 0.250465 0.594487 0.895570
-0.000000 -0.027075 0.059903 0.000000 0.094028 0.995544 0.472656 0.631094
-0.000000 -0.024367 0.047144 0.000000 0.632038 0.774926 0.472656 0.442594
-0.005282 0.026555 -0.059903 -0.108860 0.547288 -0.829798 0.318580 0.161501
-0.004754 0.023899 -0.060682 -0.028871 0.145177 -0.988952 0.337007 0.195793
0.022512 0.015042 0.059903 -0.078188 -0.052248 0.995544 0.563417 1.002992
0.028140 0.018802 0.047923 0.804956 0.537858 0.250465 0.563417 0.895570
0.019145 -0.019145 -0.059903 0.394574 -0.394574 -0.829798 0.838862 0.680730
0.017230 -0.017230 -0.060682 0.104678 -0.104678 -0.988952 0.804497 0.662451
0.005282 -0.026555 0.059903 -0.018342 0.092227 0.995544 0.503906 0.631094
0.004754 -0.023899 0.047144 -0.123295 0.619892 0.774926 0.503906 0.442594
0.025014 0.010361 0.059903 -0.086886 -0.035981 0.995544 0.532347 1.002992
0.031267 0.012951 0.047923 0.894406 0.370464 0.250465 0.532347 0.895570
0.005282 0.026555 0.059903 -0.018342 -0.092227 0.995544 0.941406 0.631094
0.000000 0.027075 0.059903 0.000000 -0.094028 0.995544 0.972656 0.631094
0.000000 0.024367 0.047144 0.000000 -0.632038 0.774926 0.972656 0.442594
0.004754 0.023899 0.047144 -0.123295 -0.619892 0.774926 0.941406 0.442594
-0.010361 0.025014 -0.059903 -0.213538 0.515549 -0.829798 0.256024 0.203400
-0.009325 0.022513 -0.060682 -0.056642 0.136753 -0.988952 0.280787 0.233438
0.026555 0.005282 0.059903 -0.092227 -0.018342 0.995544 0.501277 1.002992
0.033193 0.006603 0.047923 0.949492 0.188849 0.250465 0.501277 0.895570
0.022512 -0.015042 -0.059903 0.463973 -0.310007 -0.829798 0.867610 0.611152
0.020261 -0.013538 -0.060682 0.123081 -0.082247 -0.988952 0.830338 0.599927
0.010361 -0.025014 0.059903 -0.035981 0.086886 0.995544 0.535156 0.631094
0.009325 -0.022513 0.047144 -0.241859 0.583911 0.774926 0.535156 0.442594
0.027075 0.000000 0.059903 -0.094028 0.000000 0.995544 0.470208 1.002992
0.033844 0.000000 0.047923 0.968108 0.000000 0.250465 0.470208 0.895570
-0.015042 0.022512 -0.059903 -0.310007 0.463973 -0.829798 0.202845 0.256698
-0.013538 0.020261 -0.060682 -0.082247 0.123081 -0.988952 0.232992 0.281327
0.025014 -0.010361 -0.059903 0.515549 -0.213538 -0.829798 0.882232 0.537299
0.022513 -0.009325 -0.060682 0.136753 -0.056642 -0.988952 0.843485 0.533562
0.026555 -0.005282 0.059903 -0.092227 0.018342 0.995544 0.439138 1.002992
0.033193 -0.006603 0.047923 0.949492 -0.188849 0.250465 0.439138 0.895570
0.015042 -0.022512 0.059903 -0.052248 0.078188 0.995544 0.566406 0.631094
0.013538 -0.020261 0.047144 -0.351115 0.525498 0.774926 0.566406 0.442594
-0.019145 0.019145 -0.059903 -0.394574 0.394574 -0.829798 0.161086 0.319346
-0.017230 0.017230 -0.060682 -0.104678 0.104678 -0.988952 0.195458 0.337620
0.025014 -0.010361 0.059903 -0.086886 0.035981 0.995544 0.408068 1.002992
0.031267 -0.012951 0.047923 0.894406 -0.370464 0.250465 0.408068 0.895570
0.026555 -0.005282 -0.059903 0.547288 -0.108860 -0.829798 0.882165 0.462011
0.023899 -0.004754 -0.060682 0.145177 -0.028871 -0.988952 0.843432 0.465905
0.019145 -0.019145 0.059903 -0.066500 0.066500 0.995544 0.597656 0.631094
0.017230 -0.017230 0.047144 -0.446913 0.446913 0.774926 0.597656 0.442594
0.022512 -0.015042 0.059903 -0.078188 0.052248 0.995544 0.376999 1.002992
0.028140 -0.018802 0.047923 0.804956 -0.537828 0.250465 0.376999 0.895570
-0.022512 0.015042 -0.059903 -0.463973 0.310007 -0.829798 0.132352 0.388937
-0.020261 0.013538 -0.060682 -0.123081 0.082247 -0.988952 0.169628 0.400154
-0.005282 0.026555 0.059903 0.018342 -0.092227 0.995544 0.003906 0.631094
-0.010361 0.025014 0.059903 0.035981 -0.086886 0.995544 0.035156 0.631094
-0.009325 0.022513 0.047144 0.241859 -0.583911 0.774926 0.035156 0.442594
-0.004754 0.023899 0.047144 0.123295 -0.619892 0.774926 0.003906 0.442594
0.019145 -0.019145 0.059903 -0.066500 0.066500 0.995544 0.345929 1.002992
0.023931 -0.023931 0.047923 0.684561 -0.684561 0.250465 0.345929 0.895570
0.027075 0.000000 -0.059903 0.558031 0.000000 -0.829798 0.867410 0.388180
0.024367 0.000000 -0.060682 0.148015 0.000000 -0.988952 0.830180 0.399557
0.022512 -0.015042 0.059903 -0.078188 0.052248 0.995544 0.628906 0.631094
0.020261 -0.013538 0.047144 -0.525498 0.351115 0.774926 0.628906 0.442594
0.015042 -0.022512 0.059903 -0.052248 0.078188 0.995544 0.314859 1.002992
0.018802 -0.028140 0.047923 0.537858 -0.804956 0.250465 0.314859 0.895570
-0.025014 0.010361 -0.059903 -0.515549 0.213538 -0.829798 0.117747 0.462795
-0.022513 0.009325 -0.060682 -0.136753 0.056642 -0.988952 0.156495 0.466524
-0.015042 0.022512 0.059903 0.052248 -0.078188 0.995544 0.066406 0.631094
-0.013538 0.020261 0.047144 0.351115 -0.525498 0.774926 0.066406 0.442594
0.010361 -0.025014 0.059903 -0.035981 0.086886 0.995544 0.283789 1.002992
0.012951 -0.031267 0.047923 0.370464 -0.894406 0.250465 0.283789 0.895570
0.026555 0.005282 -0.059903 0.547288 0.108860 -0.829798 0.838534 0.318645
0.023899 0.004754 -0.060682 0.145177 0.028871 -0.988952 0.804238 0.337067
0.025014 -0.010361 0.059903 -0.086886 0.035981 0.995544 0.660156 0.631094
0.022513 -0.009325 0.047144 -0.583911 0.241859 0.774926 0.660156 0.442594
0.005282 -0.026555 0.059903 -0.018342 0.092227 0.995544 0.252720 1.002992
0.006603 -0.033193 0.047923 0.188849 -0.949492 0.250465 0.252720 0.895570
-0.026555 0.005282 -0.059903 -0.547288 0.108860 -0.829798 0.117831 0.538083
-0.023899 0.004754 -0.060682 -0.145177 0.028871 -0.988952 0.156562 0.534181
-0.019145 0.019145 0.059903 0.066500 -0.066500 0.995544 0.097656 0.631094
-0.017230 0.017230 0.047144 0.446913 -0.446913 0.774926 0.097656 0.442594
-0.000000 -0.027075 0.059903 0.000000 0.094028 0.995544 0.221650 1.002992
-0.000000 -0.033844 0.047923 0.000000 -0.968108 0.250465 0.221650 0.895570
0.025014 0.010361 -0.059903 0.515549 0.213538 -0.829798 0.796643 0.256078
0.022513 0.009325 -0.060682 0.136753 0.056642 -0.988952 0.766600 0.280839
0.026555 -0.005282 0.059903 -0.092227 0.018342 0.995544 0.691406 0.631094
0.023899 -0.004754 0.047144 -0.619892 0.123295 0.774926 0.691406 0.442594
-0.005282 -0.026555 0.059903 0.018342 0.092227 0.995544 0.190580 1.002992
-0.006603 -0.033193 0.047923 -0.188849 -0.949492 0.250465 0.190580 0.895570
-0.027075 0.000000 -0.059903 -0.558031 0.000000 -0.829798 0.132603 0.611907
-0.024367 0.000000 -0.060682 -0.148015 0.000000 -0.988952 0.169827 0.600523
-0.022512 0.015042 0.059903 0.078188 -0.052248 0.995544 0.128906 0.631094
-0.020261 0.013538 0.047144 0.525498 -0.351146 0.774926 0.128906 0.442594
-0.010361 -0.025014 0.059903 0.035981 0.086886 0.995544 0.159510 1.002992
-0.012951 -0.031267 0.047923 -0.370464 -0.894406 0.250465 0.159510 0.895570
0.022512 0.015042 -0.059903 0.463973 0.310007 -0.829798 0.743347 0.202883
0.020261 0.013538 -0.060682 0.123081 0.082247 -0.988952 0.718713 0.233030
-0.005282 0.026555 0.059903 0.018342 -0.092227 0.995544 1.003906 0.631094
-0.004754 0.023899 0.047144 0.123295 -0.619892 0.774926 1.003906 0.442594
-0.015042 -0.022512 0.059903 0.052248 0.078188 0.995544 0.128441 1.002992
-0.018803 -0.028140 0.047923 -0.537858 -0.804956 0.250465 0.128441 0.895570
0.027075 0.000000 0.059903 -0.094028 0.000000 0.995544 0.722656 0.631094
0.024367 0.000000 0.047144 -0.632038 0.000000 0.774926 0.722656 0.442594
-0.026555 -0.005282 -0.059903 -0.547288 -0.108860 -0.829798 0.161492 0.681429
-0.023899 -0.004754 -0.060682 -0.145177 -0.028871 -0.988952 0.195780 0.663003
-0.019145 -0.019145 0.059903 0.066500 0.066500 0.995544 0.097371 1.002992
-0.023931 -0.023931 0.047923 -0.684561 -0.684561 0.250465 0.097371 0.895570
-0.025014 0.010361 0.059903 0.086886 -0.035981 0.995544 0.160156 0.631094
-0.022513 0.009325 0.047144 0.583911 -0.241859 0.774926 0.160156 0.442594
0.019145 0.019145 -0.059903 0.394574 0.394574 -0.829798 0.680695 0.161113
0.017230 0.017230 -0.060682 0.104678 0.104678 -0.988952 0.662415 0.195487
-0.022512 -0.015042 0.059903 0.078188 0.052248 0.995544 0.066301 1.002992
-0.028140 -0.018802 0.047923 -0.804956 -0.537828 0.250465 0.066301 0.895570
0.026555 0.005282 0.059903 -0.092227 -0.018342 0.995544 0.753906 0.631094
0.023899 0.004754 0.047144 -0.619892 -0.123295 0.774926 0.753906 0.442594
-0.025014 -0.010361 -0.059903 -0.515549 -0.213538 -0.829798 0.203389 0.743979
-0.022513 -0.009325 -0.060682 -0.136753 -0.056642 -0.988952 0.233423 0.719218
-0.025014 -0.010361 0.059903 0.086886 0.035981 0.995544 0.035232 1.002992
-0.031267 -0.012951 0.047923 -0.894406 -0.370464 0.250465 0.035232 0.895570
-0.026555 0.005282 0.059903 0.092227 -0.018342 0.995544 0.191406 0.631094
-0.023899 0.004754 0.047144 0.619892 -0.123295 0.774926 0.191406 0.442594
0.015042 0.022512 -0.059903 0.310007 0.463973 -0.829798 0.611099 0.132370
0.013538 0.020261 -0.060682 0.082247 0.123081 -0.988952 0.599878 0.169650
-0.026555 -0.005282 0.059903 0.092227 0.018342 0.995544 0.004162 1.002992
-0.033193 -0.006603 0.047923 -0.949492 -0.188849 0.250465 0.004162 0.895570
0.025014 0.010361 0.059903 -0.086886 -0.035981 0.995544 0.785156 0.631094
0.022513 0.009325 0.047144 -0.583911 -0.241859 0.774926 0.785156 0.442594
-0.022512 -0.015042 -0.059903 -0.463973 -0.310007 -0.829798 0.256683 0.797153
-0.020261 -0.013538 -0.060682 -0.123081 -0.082247 -0.988952 0.281309 0.767009
-0.033193 -0.006603 0.047923 -0.949492 -0.188849 0.250465 0.998393 0.895570
-0.026555 -0.005282 0.059903 0.092227 0.018342 0.995544 0.998393 1.002992
-0.027075 0.000000 0.059903 0.094028 0.000000 0.995544 0.967323 1.002992
-0.033844 0.000000 0.047923 -0.968108 0.000000 0.250465 0.967323 0.895570
-0.027075 0.000000 0.059903 0.094028 0.000000 0.995544 0.222656 0.631094
-0.024367 0.000000 0.047144 0.632038 0.000000 0.774926 0.222656 0.442594
0.010361 0.025014 -0.059903 0.213538 0.515549 -0.829798 0.537234 0.117760
0.009325 0.022513 -0.060682 0.056642 0.136753 -0.988952 0.533503 0.156511
-0.026555 0.005282 0.059903 0.092227 -0.018342 0.995544 0.936253 1.002992
-0.033193 0.006603 0.047923 -0.949492 0.188849 0.250465 0.936253 0.895570
0.022512 0.015042 0.059903 -0.078188 -0.052248 0.995544 0.816406 0.631094
0.020261 0.013538 0.047144 -0.525498 -0.351115 0.774926 0.816406 0.442594
-0.019145 -0.019145 -0.059903 -0.394574 -0.394574 -0.829798 0.319325 0.838908
-0.017230 -0.017230 -0.060682 -0.104678 -0.104678 -0.988952 0.337598 0.804539
-0.025014 0.010361 0.059903 0.086886 -0.035981 0.995544 0.905184 1.002992
-0.031267 0.012951 0.047923 -0.894406 0.370464 0.250465 0.905184 0.895570
-0.026555 -0.005282 0.059903 0.092227 0.018342 0.995544 0.253906 0.631094
-0.023899 -0.004754 0.047144 0.619892 0.123295 0.774926 0.253906 0.442594
-0.022512 0.015042 0.059903 0.078188 -0.052248 0.995544 0.874114 1.002992
-0.028140 0.018803 0.047923 -0.804956 0.537858 0.250465 0.874114 0.895570
0.019145 0.019145 0.059903 -0.066500 -0.066500 0.995544 0.847656 0.631094
0.017230 0.017230 0.047144 -0.446913 -0.446913 0.774926 0.847656 0.442594
-0.015042 -0.022512 -0.059903 -0.310007 -0.463973 -0.829798 0.388909 0.867640
-0.013538 -0.020261 -0.060682 -0.082247 -0.123081 -0.988952 0.400125 0.830367
-0.019145 0.019145 0.059903 0.066500 -0.066500 0.995544 0.843044 1.002992
-0.023931 0.023931 0.047923 -0.684561 0.684561 0.250465 0.843044 0.895570
-0.025014 -0.010361 0.059903 0.086886 0.035981 0.995544 0.285156 0.631094
-0.022513 -0.009325 0.047144 0.583911 0.241859 0.774926 0.285156 0.442594
0.015042 0.022512 0.059903 -0.052248 -0.078188 0.995544 0.878906 0.631094
0.013538 0.020261 0.047144 -0.351115 -0.525498 0.774926 0.878906 0.442594
-0.015042 0.022512 0.059903 0.052248 -0.078188 0.995544 0.811975 1.002992
-0.018802 0.028140 0.047923 -0.537828 0.804956 0.250465 0.811975 0.895570
-0.010361 -0.025014 -0.059903 -0.213538 -0.515549 -0.829798 0.462759 0.882245
-0.009325 -0.022513 -0.060682 -0.056642 -0.136753 -0.988952 0.466489 0.843502
-0.022512 -0.015042 0.059903 0.078188 0.052248 0.995544 0.316406 0.631094
-0.020261 -0.013538 0.047144 0.525498 0.351115 0.774926 0.316406 0.442594
-0.010361 0.025014 0.059903 0.035981 -0.086886 0.995544 0.780905 1.002992
-0.012951 0.031267 0.047923 -0.370464 0.894406 0.250465 0.780905 0.895570
0.010361 0.025014 0.059903 -0.035981 -0.086886 0.995544 0.910156 0.631094
0.009325 0.022513 0.047144 -0.241859 -0.583911 0.774926 0.910156 0.442594
-0.005282 0.026555 0.059903 0.018342 -0.092227 0.995544 0.749835 1.002992
-0.006603 0.033193 0.047923 -0.188849 0.949492 0.250465 0.749835 0.895570
0.000000 0.033844 -0.051816 0.000000 0.942289 -0.334758 0.718766 0.001283
0.006603 0.033193 -0.051816 0.183813 0.924161 -0.334758 0.687696 0.001283
0.012951 0.031267 -0.051816 0.360576 0.870540 -0.334758 0.656626 0.001283
0.018802 0.028140 -0.051816 0.523484 0.783471 -0.334758 0.625556 0.001283
0.023931 0.023931 -0.051816 0.666280 0.666280 -0.334758 0.594487 0.001283
0.028140 0.018802 -0.051816 0.783471 0.523484 -0.334758 0.563417 0.001283
0.031267 0.012951 -0.051816 0.870540 0.360576 -0.334758 0.532347 0.001283
0.033193 0.006603 -0.051816 0.924161 0.183813 -0.334758 0.501277 0.001283
0.033844 0.000000 -0.051816 0.942289 0.000000 -0.334758 0.470208 0.001283
0.033193 -0.006603 -0.051816 0.924161 -0.183813 -0.334758 0.439138 0.001283
0.031267 -0.012951 -0.051816 0.870540 -0.360576 -0.334758 0.408068 0.001283
0.028140 -0.018802 -0.051816 0.783471 -0.523484 -0.334758 0.376999 0.001283
0.023931 -0.023931 -0.051816 0.666280 -0.666280 -0.334758 0.345929 0.001283
0.018802 -0.028140 -0.051816 0.523484 -0.783471 -0.334758 0.314859 0.001283
0.012951 -0.031267 -0.051816 0.360576 -0.870540 -0.334758 0.283789 0.001283
0.006603 -0.033193 -0.051816 0.183813 -0.924161 -0.334758 0.252720 0.001283
-0.000000 -0.033844 -0.051816 0.000000 -0.942289 -0.334758 0.221650 0.001283
-0.006603 -0.033193 -0.051816 -0.183813 -0.924161 -0.334758 0.190580 0.001283
-0.012951 -0.031267 -0.051816 -0.360576 -0.870540 -0.334758 0.159510 0.001283
-0.018803 -0.028140 -0.051816 -0.523484 -0.783471 -0.334758 0.128441 0.001283
-0.023931 -0.023931 -0.051816 -0.666280 -0.666280 -0.334758 0.097371 0.001283
-0.028140 -0.018802 -0.051816 -0.783471 -0.523484 -0.334758 0.066301 0.001283
-0.031267 -0.012951 -0.051816 -0.870540 -0.360576 -0.334758 0.035232 0.001283
-0.033193 -0.006603 -0.051816 -0.924161 -0.183813 -0.334758 0.004162 0.001283
-0.033193 -0.006603 -0.051816 -0.924161 -0.183813 -0.334758 0.998393 0.001283
-0.033844 0.000000 -0.051816 -0.942289 0.000000 -0.334758 0.967323 0.001283
-0.033193 0.006603 -0.051816 -0.924161 0.183813 -0.334758 0.936253 0.001283
-0.031267 0.012951 -0.051816 -0.870540 0.360576 -0.334758 0.905184 0.001283
-0.028140 0.018803 -0.051816 -0.783471 0.523484 -0.334758 0.874114 0.001283
-0.023931 0.023931 -0.051816 -0.666280 0.666280 -0.334758 0.843044 0.001283
-0.018802 0.028140 -0.051816 -0.523484 0.783471 -0.334758 0.811975 0.001283
-0.012951 0.031267 -0.051816 -0.360576 0.870540 -0.334758 0.780905 0.001283
-0.006603 0.033193 -0.051816 -0.183813 0.924161 -0.334758 0.749835 0.001283
-0.015042 -0.022512 -0.059903 -0.310007 -0.463973 -0.829798 0.402917 0.395000
-0.018803 -0.028140 -0.051816 -0.523484 -0.783471 -0.334758 0.402917 0.514475
-0.023931 -0.023931 -0.051816 -0.666280 -0.666280 -0.334758 0.371667 0.514475
-0.019145 -0.019145 -0.059903 -0.394574 -0.394574 -0.829798 0.371667 0.395000
0.019145 0.019145 -0.059903 0.394574 0.394574 -0.829798 0.871667 0.395000
0.023931 0.023931 -0.051816 0.666280 0.666280 -0.334758 0.871667 0.514475
0.028140 0.018802 -0.051816 0.783471 0.523484 -0.334758 0.840417 0.514475
0.022512 0.015042 -0.059903 0.463973 0.310007 -0.829798 0.840417 0.395000
0.026555 0.005282 -0.059903 0.547288 0.108860 -0.829798 0.777917 0.395000
0.033193 0.006603 -0.051816 0.924161 0.183813 -0.334758 0.777917 0.514475
0.033844 0.000000 -0.051816 0.942289 0.000000 -0.334758 0.746667 0.514475
0.027075 0.000000 -0.059903 0.558031 0.000000 -0.829798 0.746667 0.395000
-0.015042 0.022512 -0.059903 -0.310007 0.463973 -0.829798 0.090416 0.395000
-0.018802 0.028140 -0.051816 -0.523484 0.783471 -0.334758 0.090416 0.514475
-0.012951 0.031267 -0.051816 -0.360576 0.870540 -0.334758 0.059166 0.514475
-0.010361 0.025014 -0.059903 -0.213538 0.515549 -0.829798 0.059166 0.395000
-0.025014 0.010361 -0.059903 -0.515549 0.213538 -0.829798 0.184167 0.395000
-0.031267 0.012951 -0.051816 -0.870540 0.360576 -0.334758 0.184167 0.514475
-0.028140 0.018803 -0.051816 -0.783471 0.523484 -0.334758 0.152916 0.514475
-0.022512 0.015042 -0.059903 -0.463973 0.310007 -0.829798 0.152916 0.395000
0.025014 -0.010361 -0.059903 0.515549 -0.213538 -0.829798 0.684167 0.395000
0.031267 -0.012951 -0.051816 0.870540 -0.360576 -0.334758 0.684167 0.514475
0.028140 -0.018802 -0.051816 0.783471 -0.523484 -0.334758 0.652917 0.514475
0.022512 -0.015042 -0.059903 0.463973 -0.310007 -0.829798 0.652917 0.395000
0.010361 -0.025014 -0.059903 0.213538 -0.515549 -0.829798 0.559167 0.395000
0.012951 -0.031267 -0.051816 0.360576 -0.870540 -0.334758 0.559167 0.514475
0.006603 -0.033193 -0.051816 0.183813 -0.924161 -0.334758 0.527917 0.514475
0.005282 -0.026555 -0.059903 0.108860 -0.547288 -0.829798 0.527917 0.395000
0.015042 -0.022512 -0.059903 0.310007 -0.463973 -0.829798 0.590417 0.395000
0.018802 -0.028140 -0.051816 0.523484 -0.783471 -0.334758 0.590417 0.514475
-0.022512 -0.015042 -0.059903 -0.463973 -0.310007 -0.829798 0.340417 0.395000
-0.028140 -0.018802 -0.051816 -0.783471 -0.523484 -0.334758 0.340417 0.514475
-0.031267 -0.012951 -0.051816 -0.870540 -0.360576 -0.334758 0.309167 0.514475
-0.025014 -0.010361 -0.059903 -0.515549 -0.213538 -0.829798 0.309167 0.395000
0.025014 0.010361 -0.059903 0.515549 0.213538 -0.829798 0.809167 0.395000
0.031267 0.012951 -0.051816 0.870540 0.360576 -0.334758 0.809167 0.514475
-0.000000 -0.033844 -0.051816 0.000000 -0.942289 -0.334758 0.496667 0.514475
-0.000000 -0.027075 -0.059903 0.000000 -0.558031 -0.829798 0.496667 0.395000
-0.019145 0.019145 -0.059903 -0.394574 0.394574 -0.829798 0.121666 0.395000
-0.023931 0.023931 -0.051816 -0.666280 0.666280 -0.334758 0.121666 0.514475
-0.005282 -0.026555 -0.059903 -0.108860 -0.547288 -0.829798 0.465417 0.395000
-0.006603 -0.033193 -0.051816 -0.183813 -0.924161 -0.334758 0.465417 0.514475
-0.012951 -0.031267 -0.051816 -0.360576 -0.870540 -0.334758 0.434167 0.514475
-0.010361 -0.025014 -0.059903 -0.213538 -0.515549 -0.829798 0.434167 0.395000
0.005282 0.026555 -0.059903 0.108860 0.547288 -0.829798 0.965417 0.395000
0.006603 0.033193 -0.051816 0.183813 0.924161 -0.334758 0.965417 0.514475
0.012951 0.031267 -0.051816 0.360576 0.870540 -0.334758 0.934167 0.514475
0.010361 0.025014 -0.059903 0.213538 0.515549 -0.829798 0.934167 0.395000
-0.026555 -0.005282 -0.059903 -0.547288 -0.108860 -0.829798 0.277917 0.395000
-0.033193 -0.006603 -0.051816 -0.924161 -0.183813 -0.334758 0.277917 0.514475
-0.033844 0.000000 -0.051816 -0.942289 0.000000 -0.334758 0.246667 0.514475
-0.027075 0.000000 -0.059903 -0.558031 0.000000 -0.829798 0.246667 0.395000
0.000000 0.027075 -0.059903 0.000000 0.558031 -0.829798 0.996667 0.395000
0.000000 0.033844 -0.051816 0.000000 0.942289 -0.334758 0.996667 0.514475
0.026555 -0.005282 -0.059903 0.547288 -0.108860 -0.829798 0.715417 0.395000
0.033193 -0.006603 -0.051816 0.924161 -0.183813 -0.334758 0.715417 0.514475
0.018802 0.028140 -0.051816 0.523484 0.783471 -0.334758 0.902917 0.514475
0.015042 0.022512 -0.059903 0.310007 0.463973 -0.829798 0.902917 0.395000
-0.005282 0.026555 -0.059903 -0.108860 0.547288 -0.829798 0.027916 0.395000
-0.006603 0.033193 -0.051816 -0.183813 0.924161 -0.334758 0.027916 0.514475
0.000000 0.033844 -0.051816 0.000000 0.942289 -0.334758 -0.003333 0.514475
0.000000 0.027075 -0.059903 0.000000 0.558031 -0.829798 -0.003333 0.395000
-0.033193 0.006603 -0.051816 -0.924161 0.183813 -0.334758 0.215417 0.514475
-0.026555 0.005282 -0.059903 -0.547288 0.108860 -0.829798 0.215417 0.395000
0.019145 -0.019145 -0.059903 0.394574 -0.394574 -0.829798 0.621667 0.395000
0.023931 -0.023931 -0.051816 0.666280 -0.666280 -0.334758 0.621667 0.514475
0.004278 0.021509 -0.060682 -0.027284 -0.137272 -0.990143 0.469258 0.190920
-0.000000 0.021931 -0.060682 0.000000 -0.139988 -0.990143 0.409544 0.202857
0.009325 0.022513 0.047144 0.269936 0.651692 0.708792 0.910156 0.442594
0.013538 0.020261 0.047144 0.391888 0.586505 0.708792 0.878906 0.442594
0.008392 0.020261 -0.060682 -0.053560 -0.129307 -0.990143 0.530153 0.190863
0.020261 -0.013538 0.047144 0.586505 -0.391888 0.708792 0.628906 0.442594
0.017230 -0.017230 0.047144 0.498764 -0.498764 0.708792 0.597656 0.442594
0.012184 0.018235 -0.060682 -0.077761 -0.116398 -0.990143 0.589890 0.202688
-0.017230 -0.017230 0.047144 -0.498764 -0.498764 0.708792 0.347656 0.442594
-0.020261 -0.013538 0.047144 -0.586505 -0.391888 0.708792 0.316406 0.442594
0.015507 0.015507 -0.060682 -0.098972 -0.098972 -0.990143 0.646172 0.225943
-0.013538 0.020261 0.047144 -0.391888 0.586505 0.708792 0.066406 0.442594
-0.009325 0.022513 0.047144 -0.269936 0.651692 0.708792 0.035156 0.442594
0.018235 0.012184 -0.060682 -0.116398 -0.077761 -0.990143 0.696834 0.259737
0.023899 0.004754 0.047144 0.691824 0.137608 0.708792 0.753906 0.442594
0.024367 0.000000 0.047144 0.705374 0.000000 0.708792 0.722656 0.442594
0.020261 0.008392 -0.060682 -0.129307 -0.053560 -0.990143 0.739937 0.302758
-0.000000 -0.024367 0.047144 0.000000 -0.705374 0.708792 0.472656 0.442594
-0.004754 -0.023899 0.047144 -0.137608 -0.691824 0.708792 0.441406 0.442594
0.021509 0.004278 -0.060682 -0.137272 -0.027284 -0.990143 0.773812 0.353361
-0.023899 0.004754 0.047144 -0.691824 0.137608 0.708792 0.191406 0.442594
-0.022513 0.009325 0.047144 -0.651692 0.269936 0.708792 0.160156 0.442594
0.021931 0.000000 -0.060682 -0.139988 0.000000 -0.990143 0.797162 0.409600
0.017230 0.017230 0.047144 0.498764 0.498764 0.708792 0.847656 0.442594
0.021509 -0.004278 -0.060682 -0.137272 0.027284 -0.990143 0.809089 0.469313
0.013538 -0.020261 0.047144 0.391888 -0.586505 0.708792 0.566406 0.442594
0.020261 -0.008392 -0.060682 -0.129307 0.053560 -0.990143 0.809137 0.530205
-0.022513 -0.009325 0.047144 -0.651692 -0.269936 0.708792 0.285156 0.442594
0.018235 -0.012184 -0.060682 -0.116398 0.077761 -0.990143 0.797306 0.589934
-0.004754 0.023899 0.047144 -0.137608 0.691824 0.708792 0.003906 0.442594
0.015507 -0.015507 -0.060682 -0.098972 0.098972 -0.990143 0.774050 0.646207
0.023899 -0.004754 0.047144 0.691824 -0.137608 0.708792 0.691406 0.442594
0.012184 -0.018235 -0.060682 -0.077761 0.116398 -0.990143 0.740265 0.696862
-0.009325 -0.022513 0.047144 -0.269936 -0.651692 0.708792 0.410156 0.442594
0.008392 -0.020261 -0.060682 -0.053560 0.129307 -0.990143 0.697249 0.739952
-0.020261 0.013538 0.047144 -0.586505 0.391888 0.708792 0.128906 0.442594
0.004278 -0.021509 -0.060682 -0.027284 0.137272 -0.990143 0.646659 0.773825
0.020261 0.013538 0.047144 0.586505 0.391888 0.708792 0.816406 0.442594
-0.000000 -0.021931 -0.060682 0.000000 0.139988 -0.990143 0.590429 0.797169
0.009325 -0.022513 0.047144 0.269936 -0.651692 0.708792 0.535156 0.442594
-0.004278 -0.021509 -0.060682 0.027284 0.137272 -0.990143 0.530724 0.809100
-0.023899 -0.004754 0.047144 -0.691824 -0.137608 0.708792 0.253906 0.442594
-0.008393 -0.020261 -0.060682 0.053560 0.129307 -0.990143 0.469838 0.809156
0.022513 -0.009325 0.047144 0.651692 -0.269936 0.708792 0.660156 0.442594
-0.012184 -0.018235 -0.060682 0.077761 0.116398 -0.990143 0.410109 0.797335
-0.013538 -0.020261 0.047144 -0.391888 -0.586505 0.708792 0.378906 0.442594
-0.015507 -0.015507 -0.060682 0.098972 0.098972 -0.990143 0.353834 0.774088
-0.017230 0.017230 0.047144 -0.498764 0.498764 0.708792 0.097656 0.442594
-0.018235 -0.012184 -0.060682 0.116398 0.077761 -0.990143 0.303174 0.740310
0.022513 0.009325 0.047144 0.651692 0.269936 0.708792 0.785156 0.442594
-0.020261 -0.008392 -0.060682 0.129307 0.053560 -0.990143 0.260077 0.697298
0.004754 -0.023899 0.047144 0.137608 -0.691824 0.708792 0.503906 0.442594
-0.021509 -0.004278 -0.060682 0.137272 0.027284 -0.990143 0.226199 0.646703
-0.024367 0.000000 0.047144 -0.705374 0.000000 0.708792 0.222656 0.442594
-0.021931 0.000000 -0.060682 0.139988 0.000000 -0.990143 0.202842 0.590471
0.000000 0.024367 0.047144 0.000000 0.705374 0.708792 0.972656 0.442594
0.004754 0.023899 0.047144 0.137608 0.691824 0.708792 0.941406 0.442594
-0.021509 0.004278 -0.060682 0.137272 -0.027284 -0.990143 0.190904 0.530763
-0.020261 0.008393 -0.060682 0.129307 -0.053560 -0.990143 0.190844 0.469871
-0.018235 0.012184 -0.060682 0.116398 -0.077761 -0.990143 0.202664 0.410138
-0.015507 0.015507 -0.060682 0.098972 -0.098972 -0.990143 0.225912 0.353858
-0.012184 0.018235 -0.060682 0.077761 -0.116398 -0.990143 0.259692 0.303194
-0.004754 0.023899 0.047144 -0.137608 0.691824 0.708792 1.003906 0.442594
-0.008392 0.020261 -0.060682 0.053560 -0.129307 -0.990143 0.302709 0.260094
-0.004278 0.021509 -0.060682 0.027284 -0.137272 -0.990143 0.353308 0.226214
0.000000 0.000000 -0.053913 0.000000 0.000000 -1.000000 0.499991 0.500025
-0.023899 -0.004754 0.053913 -0.756005 -0.150365 0.637013 0.253906 0.442594
-0.024367 0.000000 0.053913 -0.770806 0.000000 0.637013 0.222656 0.442594
0.022513 -0.009325 0.053913 0.712149 -0.294961 0.637013 0.660156 0.442594
0.020261 -0.013538 0.053913 0.640919 -0.428236 0.637013 0.628906 0.442594
-0.017230 0.017230 0.053913 -0.545030 0.545061 0.637013 0.097656 0.442594
-0.013538 0.020261 0.053913 -0.428236 0.640919 0.637013 0.066406 0.442594
-0.004754 0.023899 0.053913 -0.150365 0.756005 0.637013 1.003906 0.442594
0.000000 0.024367 0.053913 0.000000 0.770806 0.637013 0.972656 0.442594
0.004754 -0.023899 0.053913 0.150365 -0.756005 0.637013 0.503906 0.442594
-0.000000 -0.024367 0.053913 0.000000 -0.770806 0.637013 0.472656 0.442594
0.004754 0.023899 0.053913 0.150365 0.756005 0.637013 0.941406 0.442594
0.009325 0.022513 0.053913 0.294961 0.712149 0.637013 0.910156 0.442594
0.013538 0.020261 0.053913 0.428236 0.640919 0.637013 0.878906 0.442594
-0.017230 -0.017230 0.053913 -0.545061 -0.545030 0.637013 0.347656 0.442594
-0.020261 -0.013538 0.053913 -0.640919 -0.428236 0.637013 0.316406 0.442594
0.023899 0.004754 0.053913 0.756005 0.150365 0.637013 0.753906 0.442594
0.024367 0.000000 0.053913 0.770806 0.000000 0.637013 0.722656 0.442594
-0.023899 0.004754 0.053913 -0.756005 0.150365 0.637013 0.191406 0.442594
-0.022513 0.009325 0.053913 -0.712149 0.294961 0.637013 0.160156 0.442594
0.017230 -0.017230 0.053913 0.545061 -0.545061 0.637013 0.597656 0.442594
0.013538 -0.020261 0.053913 0.428236 -0.640919 0.637013 0.566406 0.442594
-0.009325 0.022513 0.053913 -0.294961 0.712149 0.637013 0.035156 0.442594
-0.004754 0.023899 0.053913 -0.150365 0.756005 0.637013 0.003906 0.442594
-0.004754 -0.023899 0.053913 -0.150365 -0.756005 0.637013 0.441406 0.442594
-0.009325 -0.022513 0.053913 -0.294961 -0.712149 0.637013 0.410156 0.442594
0.017230 0.017230 0.053913 0.545061 0.545061 0.637013 0.847656 0.442594
0.020261 0.013538 0.053913 0.640919 0.428236 0.637013 0.816406 0.442594
-0.022513 -0.009325 0.053913 -0.712149 -0.294961 0.637013 0.285156 0.442594
0.023899 -0.004754 0.053913 0.756005 -0.150365 0.637013 0.691406 0.442594
-0.020261 0.013538 0.053913 -0.640919 0.428236 0.637013 0.128906 0.442594
0.009325 -0.022513 0.053913 0.294961 -0.712149 0.637013 0.535156 0.442594
-0.013538 -0.020261 0.053913 -0.428236 -0.640919 0.637013 0.378906 0.442594
0.022513 0.009325 0.053913 0.712149 0.294961 0.637013 0.785156 0.442594
0.000000 0.000000 0.057297 0.000000 0.000000 0.999969 0.499999 0.500000
0.004754 0.023899 0.053913 0.150365 0.756005 0.637013 0.546356 0.970673
0.000000 0.024367 0.053913 0.000000 0.770806 0.637013 0.453642 0.970673
0.009325 0.022513 0.053913 0.294961 0.712149 0.637013 0.637289 0.952585
0.013538 0.020261 0.053913 0.428236 0.640919 0.637013 0.722946 0.917105
0.017230 0.017230 0.053913 0.545061 0.545061 0.637013 0.800035 0.865595
0.020261 0.013538 0.053913 0.640919 0.428236 0.637013 0.865594 0.800036
0.022513 0.009325 0.053913 0.712149 0.294961 0.637013 0.917103 0.722947
0.023899 0.004754 0.053913 0.756005 0.150365 0.637013 0.952583 0.637290
0.024367 0.000000 0.053913 0.770806 0.000000 0.637013 0.970671 0.546357
0.023899 -0.004754 0.053913 0.756005 -0.150365 0.637013 0.970671 0.453642
0.022513 -0.009325 0.053913 0.712149 -0.294961 0.637013 0.952584 0.362710
0.020261 -0.013538 0.053913 0.640919 -0.428236 0.637013 0.917103 0.277053
0.017230 -0.017230 0.053913 0.545061 -0.545061 0.637013 0.865594 0.199963
0.013538 -0.020261 0.053913 0.428236 -0.640919 0.637013 0.800035 0.134404
0.009325 -0.022513 0.053913 0.294961 -0.712149 0.637013 0.722946 0.082895
0.004754 -0.023899 0.053913 0.150365 -0.756005 0.637013 0.637290 0.047415
-0.000000 -0.024367 0.053913 0.000000 -0.770806 0.637013 0.546357 0.029327
-0.004754 -0.023899 0.053913 -0.150365 -0.756005 0.637013 0.453642 0.029327
-0.009325 -0.022513 0.053913 -0.294961 -0.712149 0.637013 0.362709 0.047415
-0.013538 -0.020261 0.053913 -0.428236 -0.640919 0.637013 0.277052 0.082895
-0.017230 -0.017230 0.053913 -0.545061 -0.545030 0.637013 0.199963 0.134405
-0.020261 -0.013538 0.053913 -0.640919 -0.428236 0.637013 0.134404 0.199964
-0.022513 -0.009325 0.053913 -0.712149 -0.294961 0.637013 0.082895 0.277053
-0.023899 -0.004754 0.053913 -0.756005 -0.150365 0.637013 0.047415 0.362710
-0.024367 0.000000 0.053913 -0.770806 0.000000 0.637013 0.029327 0.453643
-0.023899 0.004754 0.053913 -0.756005 0.150365 0.637013 0.029327 0.546358
-0.022513 0.009325 0.053913 -0.712149 0.294961 0.637013 0.047415 0.637291
-0.020261 0.013538 0.053913 -0.640919 0.428236 0.637013 0.082895 0.722947
-0.017230 0.017230 0.053913 -0.545030 0.545061 0.637013 0.134404 0.800037
-0.013538 0.020261 0.053913 -0.428236 0.640919 0.637013 0.199963 0.865596
-0.009325 0.022513 0.053913 -0.294961 0.712149 0.637013 0.277052 0.917105
-0.004754 0.023899 0.053913 -0.150365 0.756005 0.637013 0.362710 0.952585
4 0 1 2 3
4 4 5 6 7
4 8 9 10 11
4 12 0 3 13
4 5 14 15 6
4 11 10 16 17
4 18 19 20 21
4 22 12 13 23
4 17 16 24 25
4 14 26 27 15
4 28 22 23 29
4 25 24 30 31
4 26 32 33 27
4 34 18 21 35
4 31 30 36 37
4 38 28 29 39
4 32 40 41 33
4 37 36 42 43
4 44 45 46 47
4 48 34 35 49
4 43 42 50 51
4 52 38 39 53
4 40 54 55 41
4 51 50 56 57
4 58 48 49 59
4 60 52 53 61
4 57 56 62 63
4 54 64 65 55
4 66 58 59 67
4 63 62 68 69
4 70 60 61 71
4 64 72 73 65
4 69 68 74 75
4 76 66 67 77
4 78 79 80 81
4 75 74 82 83
4 84 70 71 85
4 72 86 87 73
4 83 82 88 89
4 90 76 77 91
4 79 92 93 80
4 89 88 94 95
4 96 84 85 97
4 86 98 99 87
4 95 94 100 101
4 102 90 91 103
4 92 104 105 93
4 101 100 106 107
4 108 96 97 109
4 98 110 111 99
4 107 106 112 113
4 114 102 103 115
4 104 116 117 105
4 113 112 118 119
4 120 108 109 121
4 45 122 123 46
4 119 118 124 125
4 110 126 127 111
4 128 114 115 129
4 125 124 130 131
4 116 132 133 117
4 134 120 121 135
4 131 130 136 137
4 126 138 139 127
4 140 128 129 141
4 137 136 142 143
4 132 144 145 133
4 146 134 135 147
4 143 142 148 149
4 138 150 151 139
4 152 140 141 153
4 154 155 156 157
4 144 158 159 145
4 160 146 147 161
4 157 156 162 163
4 150 164 165 151
4 166 152 153 167
4 163 162 168 169
4 158 170 171 159
4 19 160 161 20
4 169 168 172 173
4 164 174 175 165
4 176 166 167 177
4 173 172 178 179
4 170 180 181 171
4 174 182 183 175
4 179 178 184 185
4 186 176 177 187
4 180 188 189 181
4 185 184 190 191
4 182 192 193 183
4 1 186 187 2
4 191 190 194 195
4 188 4 7 189
4 192 44 47 193
4 195 194 9 8
4 196 8 11 197
4 197 11 17 198
4 198 17 25 199
4 199 25 31 200
4 200 31 37 201
4 201 37 43 202
4 202 43 51 203
4 203 51 57 204
4 204 57 63 205
4 205 63 69 206
4 206 69 75 207
4 207 75 83 208
4 208 83 89 209
4 209 89 95 210
4 210 95 101 211
4 211 101 107 212
4 212 107 113 213
4 213 113 119 214
4 214 119 125 215
4 215 125 131 216
4 216 131 137 217
4 217 137 143 218
4 218 143 149 219
4 220 154 157 221
4 221 157 163 222
4 222 163 169 223
4 223 169 173 224
4 224 173 179 225
4 225 179 185 226
4 226 185 191 227
4 227 191 195 228
4 228 195 8 196
4 229 230 231 232
4 233 234 235 236
4 237 238 239 240
4 241 242 243 244
4 245 246 247 248
4 249 250 251 252
4 253 254 255 256
4 257 258 254 253
4 259 260 261 262
4 263 264 238 237
4 256 255 265 266
4 267 268 242 241
4 269 270 271 272
4 266 265 270 269
4 273 274 275 276
4 232 231 260 259
4 277 278 279 280
4 281 282 274 273
4 283 284 250 249
4 262 261 278 277
4 276 275 285 286
4 287 288 289 290
4 280 279 291 292
4 272 271 230 229
4 286 285 234 233
4 236 235 264 263
4 248 247 268 267
4 292 291 246 245
4 240 239 284 283
4 293 294 258 257
4 244 243 288 287
4 252 251 294 293
4 20 295 296 21
4 183 193 297 298
4 295 20 161 299
4 73 87 300 301
4 299 161 147 302
4 189 7 303 304
4 302 147 135 305
4 80 93 306 307
4 305 135 121 308
4 127 139 309 310
4 308 121 109 311
4 27 33 312 313
4 311 109 97 314
4 133 145 315 316
4 314 97 85 317
4 175 183 298 318
4 317 85 71 319
4 65 73 301 320
4 319 71 61 321
4 181 189 304 322
4 321 61 53 323
4 81 80 307 324
4 323 53 39 325
4 111 127 310 326
4 325 39 29 327
4 15 27 313 328
4 327 29 23 329
4 117 133 316 330
4 329 23 13 331
4 165 175 318 332
4 331 13 3 333
4 55 65 320 334
4 333 3 2 335
4 171 181 322 336
4 335 2 187 337
4 99 111 326 338
4 337 187 177 339
4 6 15 328 340
4 339 177 167 341
4 105 117 330 342
4 341 167 153 343
4 151 165 332 344
4 343 153 141 345
4 41 55 334 346
4 345 141 129 347
4 159 171 336 348
4 347 129 115 349
4 47 46 350 351
4 349 115 103 352
4 193 47 351 297
4 352 103 91 353
4 87 99 338 300
4 353 91 77 354
4 7 6 340 303
4 354 77 67 355
4 93 105 342 306
4 355 67 59 356
4 46 123 357 350
4 356 59 49 358
4 139 151 344 309
4 358 49 35 359
4 33 41 346 312
4 359 35 21 296
4 145 159 348 315
3 360 296 295
3 360 295 299
3 360 299 302
3 360 302 305
3 360 305 308
3 360 308 311
3 360 311 314
3 360 314 317
3 360 317 319
3 360 319 321
3 360 321 323
3 360 323 325
3 360 325 327
3 360 327 329
3 360 329 331
3 360 331 333
3 360 333 335
3 360 335 337
3 360 337 339
3 360 339 341
3 360 341 343
3 360 343 345
3 360 345 347
3 360 347 349
3 360 349 352
3 360 352 353
3 360 353 354
3 360 354 355
3 360 355 356
3 360 356 358
3 360 358 359
3 360 359 296
4 348 336 361 362
4 300 338 363 364
4 306 342 365 366
4 350 357 367 368
4 312 346 369 370
4 351 350 368 371
4 298 297 372 373
4 304 303 374 375
4 310 309 376 377
4 316 315 378 379
4 320 301 380 381
4 324 307 382 383
4 328 313 384 385
4 332 318 386 387
4 336 322 388 361
4 338 326 389 363
4 342 330 390 365
4 346 334 391 369
4 297 351 371 372
4 303 340 392 374
4 309 344 393 376
4 315 348 362 378
4 301 300 364 380
4 307 306 366 382
4 313 312 370 384
4 318 298 373 386
4 322 304 375 388
4 326 310 377 389
4 330 316 379 390
4 334 320 381 391
4 340 328 385 392
4 344 332 387 393
3 394 395 396
3 394 397 395
3 394 398 397
3 394 399 398
3 394 400 399
3 394 401 400
3 394 402 401
3 394 403 402
3 394 404 403
3 394 405 404
3 394 406 405
3 394 407 406
3 394 408 407
3 394 409 408
3 394 410 409
3 394 411 410
3 394 412 411
3 394 413 412
3 394 414 413
3 394 415 414
3 394 416 415
3 394 417 416
3 394 418 417
3 394 419 418
3 394 420 419
3 394 421 420
3 394 422 421
3 394 423 422
3 394 424 423
3 394 425 424
3 394 426 425
3 394 396 426
